PathFileType	4	(X/Y/Z)	pose_F01_0-96.trc
DataRate	CameraRate	NumFrames	NumMarkers	Units	OrigDataRate	OrigDataStartFrame	OrigNumFrames
30	30	8	21	m	30	48	96
Frame#	Time	CHip			RHip			RKnee			RAnkle			RBigToe			RSmallToe			RHeel			LHip			LKnee			LAnkle			LBigToe			LSmallToe			LHeel			Neck			Nose			RShoulder			RElbow			RWrist			LShoulder			LElbow			LWrist			
		X1	Y1	Z1	X2	Y2	Z2	X3	Y3	Z3	X4	Y4	Z4	X5	Y5	Z5	X6	Y6	Z6	X7	Y7	Z7	X8	Y8	Z8	X9	Y9	Z9	X10	Y10	Z10	X11	Y11	Z11	X12	Y12	Z12	X13	Y13	Z13	X14	Y14	Z14	X15	Y15	Z15	X16	Y16	Z16	X17	Y17	Z17	X18	Y18	Z18	X19	Y19	Z19	X20	Y20	Z20	X21	Y21	Z21	
48	1.6	-0.1677437706683615	1.8438748305546904	-0.6805444219549626	-0.17913151962604976	1.841826435841614	-0.6184180564538233	-0.17626130289225383	1.7083782759524682	-0.6217545068033343	-0.14929507585318277	1.5948923016124235	-0.6407539947987699	-0.17701629155200443	1.5619225419571556	-0.6121868784915451	-0.1738073791811511	1.5676313794006604	-0.5947496419428688	-0.14475341503066622	1.5888342628764445	-0.6575601900728333	-0.1522653368045386	1.845626218052852	-0.7415784279573091	-0.16113119655880953	1.707598427196991	-0.7128409004838275	-0.14329742449565114	1.5844423491036073	-0.7162749641536215	-0.17250679266265675	1.5567314091267928	-0.6793268175257222	-0.16365443755902304	1.5586399333976058	-0.7173888711470492	-0.1333360752097265	1.5727375389026557	-0.7202641506939174	-0.15592147200132817	1.9952085814632545	-0.7086172100783501	-0.1818540128610224	2.0553397474448154	-0.6833499686484663	-0.17630920725973148	1.9902080398178092	-0.6183622709308318	-0.17112540770477416	1.9181208972089903	-0.5518165365912507	-0.1970465045894501	1.9411668493201581	-0.5620747433728484	-0.13328638788649447	2.0020032273106283	-0.7991849192536378	-0.1309439521063957	1.9267392546606574	-0.8528265879623299	-0.16460963289147712	1.9749094370178546	-0.791400258089857
49	1.6333333333333333	-0.16407410679735474	1.845490079008781	-0.6885670351656707	-0.17781203181409436	1.8446812863681843	-0.62454793660867	-0.1742031984670143	1.7098953485580421	-0.6241406737320678	-0.149143419024387	1.594500162054816	-0.6405673582325027	-0.17697332169000354	1.5619509785193972	-0.612231080428759	-0.17291068816350272	1.5676146998376372	-0.5914720156291983	-0.14290546946639354	1.5898287633428674	-0.6551604198030819	-0.1484501467520547	1.8469369275090801	-0.7497302720233795	-0.1563233407944145	1.7119520342076906	-0.7184345121814517	-0.1410681255958896	1.5847574820278933	-0.7185966396171697	-0.16890222723705364	1.5564680635459864	-0.6871823234040346	-0.1616908382247242	1.557667837695955	-0.7192941208024363	-0.13363110567731973	1.5741011312271809	-0.7201629443377319	-0.14919844367857338	1.9981362314264566	-0.7161398719354559	-0.17737593294530957	2.0566758578588487	-0.6880283708932315	-0.16839784493935442	1.9941482340835086	-0.6306260581354857	-0.17735553656948125	1.930885712336519	-0.5475579442613571	-0.19874897376625345	1.9608080979739104	-0.5542713586446183	-0.12702259488834633	2.0048830862510516	-0.8095292821309299	-0.12670783059941298	1.9403466105033365	-0.8740455905669685	-0.15250356073650195	1.9897858972874736	-0.8118235790884818
50	1.6666666666666667	-0.16177998102596536	1.8481054272645183	-0.691382369415745	-0.1763838491740541	1.846209263702307	-0.6301798541079693	-0.18007328781436815	1.7131465130602979	-0.6183539284330413	-0.15104627966197157	1.5985306355420277	-0.6391800947196842	-0.17697448053692044	1.5618878056461	-0.6121097344640181	-0.17474877360073393	1.5686584422854195	-0.5896937291008456	-0.1445665565324446	1.592459557543255	-0.654026812745224	-0.14696364837677944	1.8469775129752555	-0.7551134700734121	-0.15395647399967496	1.7118923780102482	-0.7209895977361972	-0.14002131842671273	1.5870391441947702	-0.7238509469346254	-0.17108285580942598	1.5565300068002135	-0.6848411783647953	-0.1636689129946429	1.5589585237523296	-0.717649738873555	-0.13229718542404645	1.5754662534516146	-0.7256474319287096	-0.14761860188695172	1.9982402476481238	-0.7211203616395007	-0.16945330131770875	2.0568431035648036	-0.7000581849538754	-0.1670798862047929	1.9942871285354686	-0.6361254709849177	-0.18459013671218577	1.9407057781709776	-0.5283788672103322	-0.19424286006864286	1.98540087057748	-0.509065062058421	-0.12454657645790038	2.0033579951213945	-0.8111722839548974	-0.12832795746661244	1.9549999770457775	-0.884710870521574	-0.1386885114477908	2.0108510120891796	-0.845310968528523
51	1.7	-0.1607869922468455	1.8452860502194777	-0.6879280936253735	-0.1774232946778389	1.843291778015008	-0.6243731769856837	-0.18192198344633623	1.7101371468529956	-0.6160520510557564	-0.15705869900756625	1.5937586137618671	-0.6328530308527786	-0.18020029599071835	1.5603316350955778	-0.6046463576451698	-0.1812505326386239	1.5656510656230234	-0.5825933009086631	-0.15349180850091504	1.5872515236410538	-0.6484380522690918	-0.14599064592475003	1.845570438980689	-0.7518721592398786	-0.1513074562923002	1.7118845770753752	-0.7236729517276429	-0.13905862570834365	1.587150445855749	-0.7253278760528334	-0.1662361599042825	1.5543304695313698	-0.689843270419518	-0.1585517536669029	1.5588540292658086	-0.7230150359074663	-0.1330097882238097	1.5759656147242866	-0.7218947479282879	-0.1431708168463333	1.998121365180297	-0.7257679688216976	-0.16297325969269072	2.0585179688103343	-0.7073725945242322	-0.1629075718912603	1.993150427651631	-0.6407454240138908	-0.18226672661609505	1.943969592549345	-0.5215351920322464	-0.19846760295398108	1.9968845344656811	-0.49949260552985425	-0.11902146525164428	2.0042780301745426	-0.8130151768919369	-0.1200850505864584	1.9625948351731994	-0.8916285100617547	-0.13769095572138557	2.009606857279345	-0.8530471071652402
52	1.7333333333333334	-0.16384121800298818	1.8467870119355545	-0.6888804233845968	-0.17843802543390128	1.8448247604023746	-0.6277625134126485	-0.1802619849940095	1.7077423548183577	-0.6175683999498904	-0.1600952757343837	1.5895281907627719	-0.6289030579648556	-0.19201095413643848	1.556844959237271	-0.5961256080294217	-0.18755954579727335	1.5640689347668069	-0.576031660115549	-0.15666099193981511	1.5781383487479814	-0.6435277020752206	-0.14600563008564724	1.8484768911981908	-0.7521586610677442	-0.15240678674977498	1.7105009487159393	-0.7262784670288891	-0.13964399918254378	1.5846891789055828	-0.7240258111401019	-0.17006351775254028	1.5529495956865258	-0.6812854265506889	-0.16111427124218605	1.5543694966287318	-0.7193286400563152	-0.1322745590247405	1.5724139480261003	-0.7250525244583678	-0.14090309434019133	1.9981056649286895	-0.7281219627478973	-0.15846701935349264	2.061023155927011	-0.7123191693379575	-0.1585954144176042	1.9919140013522796	-0.6450007113538481	-0.18691206446635916	1.943893139768828	-0.5287000249854134	-0.19514064366477507	1.9979827675685744	-0.5067204296877384	-0.11665513670442547	2.0031119304405793	-0.8149358485043867	-0.10498454428650558	1.9542073519951952	-0.8901608488620373	-0.1164314221798866	1.9981300043690564	-0.8726087067042904
53	1.7666666666666666	-0.16139429951096568	1.8440405948435228	-0.6909069400210253	-0.1780523321672099	1.8446441291880964	-0.6277245286248739	-0.1753055601083652	1.7091698408077924	-0.6230764721636809	-0.160716007033267	1.5880480608713285	-0.632440210466727	-0.1889778164061789	1.5542826336639457	-0.5947816660645094	-0.1857539083012886	1.5628138928483724	-0.5776552022848223	-0.1554030217684212	1.580547334923537	-0.6496681617756643	-0.14662332689167124	1.8444694723966342	-0.7548930546453314	-0.16723500506804623	1.7148027680002451	-0.711616045379986	-0.13358275613867554	1.6002928256140334	-0.7281295641053441	-0.15795226963154888	1.5631334652220774	-0.6987285168122304	-0.14952511385732584	1.5671880893919568	-0.7326619874215553	-0.12639901259599698	1.5891850781193826	-0.7292596156775557	-0.1397007076520001	1.9958892742102838	-0.7335852453981682	-0.15400816726030125	2.0622548622350756	-0.716832086341167	-0.15889156498799828	1.991063919507135	-0.6455301141663469	-0.1872282284588856	1.938873080729412	-0.5281418662826253	-0.18497563970608286	1.9981125481715272	-0.5356653302194103	-0.11299785173029131	1.999881843316793	-0.8225191269730614	-0.10000807633887733	1.9254220562411932	-0.8835870397600947	-0.10728184043830517	1.9719110257109917	-0.8741925780491792
54	1.8	-0.15696485978032007	1.8428204266733366	-0.6954438082826284	-0.17466983988990442	1.8410335521375925	-0.6349273755045928	-0.18283386281061542	1.707679735064794	-0.6189745845971975	-0.1608738846050024	1.588584616339453	-0.6276639494735154	-0.19179160780919868	1.5553704965459343	-0.5914891563444868	-0.18826641137842426	1.5625867074524027	-0.5745944532687229	-0.15579771735383294	1.5809624064228747	-0.6485675214363535	-0.14427905885876538	1.8432466555955969	-0.7570649998832746	-0.16943293691820047	1.7173908696698779	-0.7097197540712793	-0.13092603455360097	1.6050392480914566	-0.7315000253136454	-0.15106840853941353	1.5631931552900644	-0.7056516360568698	-0.14131403838583023	1.569139040297821	-0.7448154016237023	-0.12094170076739397	1.5989810625433867	-0.7367873942454933	-0.1373504821886156	1.9958366218557053	-0.7355481846629387	-0.15481037568270337	2.0623375153891974	-0.7197904194649842	-0.15644573448577248	1.9944644299531415	-0.6477445724371568	-0.18797592311777234	1.9393433648409586	-0.5401962889298884	-0.18560996476222236	1.9997543708900554	-0.5568845968672517	-0.11378493083793663	1.9986087873650091	-0.825558276981546	-0.10308009456198174	1.9226936224594104	-0.8840065851913597	-0.11221497161751054	1.9723805332830213	-0.8717991964288488
55	1.8333333333333333	-0.15589190860546448	1.8404966083001293	-0.7005149388547617	-0.17267023956116817	1.8398617060909104	-0.6372327387283814	-0.18869157945606904	1.7125524850533507	-0.6092564421673657	-0.1618015891649679	1.5934395491320357	-0.6276713040555002	-0.19245663857139758	1.5567570225514296	-0.5953366293263471	-0.1890038128764609	1.5639623633128341	-0.5784426921597399	-0.1557203418105793	1.5878420784948932	-0.6460585981956402	-0.14295124980574098	1.8422149948755482	-0.7624187258156888	-0.1619426151853582	1.7137113406383178	-0.7210748686071127	-0.12277075296931707	1.5974672383294868	-0.742762851444284	-0.15227100786780148	1.5593355736353598	-0.7078978623811136	-0.14145942355857685	1.5638918636904453	-0.7439011177134253	-0.11212570207718937	1.586510980872987	-0.7437471918208007	-0.1381915130612882	1.9948355879764323	-0.7386020326071079	-0.15487118937783886	2.058738462218248	-0.7192111183156467	-0.16019299924650884	1.9908316445311265	-0.650891150748994	-0.17658027344768512	1.924300822070675	-0.5544382531903719	-0.1877399338813648	1.9821426634847747	-0.5986197478123161	-0.11164174742529646	1.9962982006242969	-0.8280559058626286	-0.10545493685769115	1.9373063969555393	-0.897515955364453	-0.13147777492385188	1.9962215622578028	-0.8614298033231358
